HIERARCHY
ROOT pelvis
{
  OFFSET 0 100 0
  CHANNELS 6 Xposition Yposition Zposition Zrotation Xrotation Yrotation
  JOINT pelvis_right_femur
  {
    OFFSET -10.78128 -3.44521 -0.5502486
    CHANNELS 3 Zrotation Xrotation Yrotation
    JOINT right_femur_tibia
    {
      OFFSET -0.8047443 -44.0398 -0.1307829
      CHANNELS 3 Zrotation Xrotation Yrotation
      JOINT right_tibia_foot
      {
        OFFSET 3.006224 -47.83518 -5
        CHANNELS 3 Zrotation Xrotation Yrotation
        End Site
        {
          OFFSET 0 -5 15
        }
      }
    }
  }
  JOINT pelvis_left_femur
  {
    OFFSET 10.78128 -3.44521 -0.5502486
    CHANNELS 3 Zrotation Xrotation Yrotation
    JOINT left_femur_tibia
    {
      OFFSET 0.8047443 -44.0398 -0.1307829
      CHANNELS 3 Zrotation Xrotation Yrotation
      JOINT left_tibia_foot
      {
        OFFSET -4.370144 -48.10324 -4.275266
        CHANNELS 3 Zrotation Xrotation Yrotation
        End Site
        {
          OFFSET 0 -5 15
        }
      }
    }
  }
  JOINT pelvis_spine1
  {
    OFFSET 0 6.468898 -3.129235
    CHANNELS 3 Zrotation Xrotation Yrotation
    JOINT spine1
    {
      OFFSET 0 23.15396 4.99043
      CHANNELS 3 Zrotation Xrotation Yrotation
      JOINT spine2
      {
        OFFSET 0 20.79997 -5.064912
        CHANNELS 3 Zrotation Xrotation Yrotation
        JOINT neck
        {
          OFFSET 0 14.38658 9.616178
          CHANNELS 3 Zrotation Xrotation Yrotation
          End Site
          {
            OFFSET 0 20 0
          }
        }
      }
      JOINT right_manubrium
      {
        OFFSET -5.722621 16.35077 3.967754
        CHANNELS 3 Zrotation Xrotation Yrotation
        JOINT right_clavicle
        {
          OFFSET -13.16364 1.694482 -4.693211
          CHANNELS 3 Zrotation Xrotation Yrotation
          JOINT right_humerus
          {
            OFFSET -28.5034 -0.3100689 -2.792744
            CHANNELS 3 Zrotation Xrotation Yrotation
            JOINT right_radius
            {
              OFFSET -25.15693 0.02248979 -1.271978
              CHANNELS 3 Zrotation Xrotation Yrotation
              End Site
              {
                OFFSET -15 0 0
              }
            }
          }
        }
      }
      JOINT left_manubrium
      {
        OFFSET 5.722621 16.35077 3.967754
        CHANNELS 3 Zrotation Xrotation Yrotation
        JOINT left_clavicle
        {
          OFFSET 13.16364 1.694482 -4.693211
          CHANNELS 3 Zrotation Xrotation Yrotation
          JOINT left_humerus
          {
            OFFSET 29.39168 -1.063119 -2.237045
            CHANNELS 3 Zrotation Xrotation Yrotation
            JOINT left_radius
            {
              OFFSET 24.59957 -0.9528479 0.9047498
              CHANNELS 3 Zrotation Xrotation Yrotation
              End Site
              {
                OFFSET 15 -0 -0
              }
            }
          }
        }
      }
    }
  }
}
MOTION
Frames: 19
Frame Time: 0.0416666666667
9.891069 116.3845 230.4407 -3.656135 -9.954714 -7.575944 8.130028 14.56373 -0.3128213 -0 12.13027 -0 -11.28877 -12.33285 -3.76781 4.977439 -15.92931 -3.531065 -0 15.83259 -0 1.193806 -2.433207 16.94802 2.432382 -3.66791 6.037076 0.1859671 16.36273 -5.860542 2.294964 20.50782 0.6090544 -1.654279 -19.64982 5.468094 -3.340095 -30.21962 12.69513 90.33867 15.03474 -9.311744 -0 0 26.73354 -25.98144 18.17607 15.84599 2.751067 -21.60347 -6.358192 -93.73581 10.8197 33.74318 0 0 -4.928242 8.827776 20.21143 1.455185
9.767328 116.3587 235.8581 -3.793923 -9.903467 -8.37503 8.130028 14.56373 -0.3128213 -0 12.13027 -0 -11.28877 -12.33285 -3.76781 4.977439 -15.92931 -3.531065 -0 15.83259 -0 1.193806 -2.433207 16.94802 2.432382 -3.66791 6.037076 0.1859671 16.36273 -5.860542 2.294964 20.50782 0.6090544 -1.654279 -19.64982 5.468094 -3.340095 -30.21962 12.69513 90.33867 15.03474 -9.311744 -0 0 26.73354 -25.98144 18.17607 15.84599 2.751067 -21.60347 -6.358192 -93.73581 10.8197 33.74318 0 0 -4.928242 8.827776 20.21143 1.455185
9.569021 116.3329 241.2732 -3.93095 -9.850333 -9.173863 8.130028 14.56373 -0.3128213 -0 12.13027 -0 -11.28877 -12.33285 -3.76781 4.977439 -15.92931 -3.531065 -0 15.83259 -0 1.193806 -2.433207 16.94802 2.432382 -3.66791 6.037076 0.1859671 16.36273 -5.860542 2.294964 20.50782 0.6090544 -1.654279 -19.64982 5.468094 -3.340095 -30.21962 12.69513 90.33867 15.03474 -9.311744 -0 0 26.73354 -25.98144 18.17607 15.84599 2.751067 -21.60347 -6.358192 -93.73581 10.8197 33.74318 0 0 -4.928242 8.827776 20.21143 1.455185
9.296186 116.3072 246.6851 -4.06719 -9.795322 -9.972433 8.130028 14.56373 -0.3128213 -0 12.13027 -0 -11.28877 -12.33285 -3.76781 4.977439 -15.92931 -3.531065 -0 15.83259 -0 1.193806 -2.433207 16.94802 2.432382 -3.66791 6.037076 0.1859671 16.36273 -5.860542 2.294964 20.50782 0.6090544 -1.654279 -19.64982 5.468094 -3.340095 -30.21962 12.69513 90.33867 15.03474 -9.311744 -0 0 26.73354 -25.98144 18.17607 15.84599 2.751067 -21.60347 -6.358192 -93.73581 10.8197 33.74318 0 0 -4.928242 8.827776 20.21143 1.455185
8.948874 116.2814 252.0927 -4.202616 -9.738445 -10.77073 8.130028 14.56373 -0.3128213 -0 12.13027 -0 -11.28877 -12.33285 -3.76781 4.977439 -15.92931 -3.531065 -0 15.83259 -0 1.193806 -2.433207 16.94802 2.432382 -3.66791 6.037076 0.1859671 16.36273 -5.860542 2.294964 20.50782 0.6090544 -1.654279 -19.64982 5.468094 -3.340095 -30.21962 12.69513 90.33867 15.03474 -9.311744 -0 0 26.73354 -25.98144 18.17607 15.84599 2.751067 -21.60347 -6.358192 -93.73581 10.8197 33.74318 0 0 -4.928242 8.827776 20.21143 1.455185
8.527151 116.2556 257.4951 -4.337202 -9.679715 -11.56876 8.130028 14.56373 -0.3128213 -0 12.13027 -0 -11.28877 -12.33285 -3.76781 4.977439 -15.92931 -3.531065 -0 15.83259 -0 1.193806 -2.433207 16.94802 2.432382 -3.66791 6.037076 0.1859671 16.36273 -5.860542 2.294964 20.50782 0.6090544 -1.654279 -19.64982 5.468094 -3.340095 -30.21962 12.69513 90.33867 15.03474 -9.311744 -0 0 26.73354 -25.98144 18.17607 15.84599 2.751067 -21.60347 -6.358192 -93.73581 10.8197 33.74318 0 0 -4.928242 8.827776 20.21143 1.455185
8.031098 116.2298 262.8911 -4.470921 -9.619144 -12.3665 8.130028 14.56373 -0.3128213 -0 12.13027 -0 -11.28877 -12.33285 -3.76781 4.977439 -15.92931 -3.531065 -0 15.83259 -0 1.193806 -2.433207 16.94802 2.432382 -3.66791 6.037076 0.1859671 16.36273 -5.860542 2.294964 20.50782 0.6090544 -1.654279 -19.64982 5.468094 -3.340095 -30.21962 12.69513 90.33867 15.03474 -9.311744 -0 0 26.73354 -25.98144 18.17607 15.84599 2.751067 -21.60347 -6.358192 -93.73581 10.8197 33.74318 0 0 -4.928242 8.827776 20.21143 1.455185
7.460807 116.204 268.2797 -4.603747 -9.556743 -13.16395 8.130028 14.56373 -0.3128213 -0 12.13027 -0 -11.28877 -12.33285 -3.76781 4.977439 -15.92931 -3.531065 -0 15.83259 -0 1.193806 -2.433207 16.94802 2.432382 -3.66791 6.037076 0.1859671 16.36273 -5.860542 2.294964 20.50782 0.6090544 -1.654279 -19.64982 5.468094 -3.340095 -30.21962 12.69513 90.33867 15.03474 -9.311744 -0 0 26.73354 -25.98144 18.17607 15.84599 2.751067 -21.60347 -6.358192 -93.73581 10.8197 33.74318 0 0 -4.928242 8.827776 20.21143 1.455185
6.816388 116.1782 273.6601 -4.735656 -9.492526 -13.96111 8.130028 14.56373 -0.3128213 -0 12.13027 -0 -11.28877 -12.33285 -3.76781 4.977439 -15.92931 -3.531065 -0 15.83259 -0 1.193806 -2.433207 16.94802 2.432382 -3.66791 6.037076 0.1859671 16.36273 -5.860542 2.294964 20.50782 0.6090544 -1.654279 -19.64982 5.468094 -3.340095 -30.21962 12.69513 90.33867 15.03474 -9.311744 -0 0 26.73354 -25.98144 18.17607 15.84599 2.751067 -21.60347 -6.358192 -93.73581 10.8197 33.74318 0 0 -4.928242 8.827776 20.21143 1.455185
6.097962 116.1524 279.031 -4.866621 -9.426506 -14.75796 8.130028 14.56373 -0.3128213 -0 12.13027 -0 -11.28877 -12.33285 -3.76781 4.977439 -15.92931 -3.531065 -0 15.83259 -0 1.193806 -2.433207 16.94802 2.432382 -3.66791 6.037076 0.1859671 16.36273 -5.860542 2.294964 20.50782 0.6090544 -1.654279 -19.64982 5.468094 -3.340095 -30.21962 12.69513 90.33867 15.03474 -9.311744 -0 0 26.73354 -25.98144 18.17607 15.84599 2.751067 -21.60347 -6.358192 -93.73581 10.8197 33.74318 0 0 -4.928242 8.827776 20.21143 1.455185
5.305666 116.1266 284.3915 -4.996618 -9.358695 -15.5545 8.130028 14.56373 -0.3128213 -0 12.13027 -0 -11.28877 -12.33285 -3.76781 4.977439 -15.92931 -3.531065 -0 15.83259 -0 1.193806 -2.433207 16.94802 2.432382 -3.66791 6.037076 0.1859671 16.36273 -5.860542 2.294964 20.50782 0.6090544 -1.654279 -19.64982 5.468094 -3.340095 -30.21962 12.69513 90.33867 15.03474 -9.311744 -0 0 26.73354 -25.98144 18.17607 15.84599 2.751067 -21.60347 -6.358192 -93.73581 10.8197 33.74318 0 0 -4.928242 8.827776 20.21143 1.455185
4.439649 116.1008 289.7406 -5.125621 -9.289109 -16.35073 8.130028 14.56373 -0.3128213 -0 12.13027 -0 -11.28877 -12.33285 -3.76781 4.977439 -15.92931 -3.531065 -0 15.83259 -0 1.193806 -2.433207 16.94802 2.432382 -3.66791 6.037076 0.1859671 16.36273 -5.860542 2.294964 20.50782 0.6090544 -1.654279 -19.64982 5.468094 -3.340095 -30.21962 12.69513 90.33867 15.03474 -9.311744 -0 0 26.73354 -25.98144 18.17607 15.84599 2.751067 -21.60347 -6.358192 -93.73581 10.8197 33.74318 0 0 -4.928242 8.827776 20.21143 1.455185
3.500076 116.075 295.0773 -5.253607 -9.217761 -17.14664 8.130028 14.56373 -0.3128213 -0 12.13027 -0 -11.28877 -12.33285 -3.76781 4.977439 -15.92931 -3.531065 -0 15.83259 -0 1.193806 -2.433207 16.94802 2.432382 -3.66791 6.037076 0.1859671 16.36273 -5.860542 2.294964 20.50782 0.6090544 -1.654279 -19.64982 5.468094 -3.340095 -30.21962 12.69513 90.33867 15.03474 -9.311744 -0 0 26.73354 -25.98144 18.17607 15.84599 2.751067 -21.60347 -6.358192 -93.73581 10.8197 33.74318 0 0 -4.928242 8.827776 20.21143 1.455185
2.487125 116.0492 300.4006 -5.38055 -9.144665 -17.94222 8.130028 14.56373 -0.3128213 -0 12.13027 -0 -11.28877 -12.33285 -3.76781 4.977439 -15.92931 -3.531065 -0 15.83259 -0 1.193806 -2.433207 16.94802 2.432382 -3.66791 6.037076 0.1859671 16.36273 -5.860542 2.294964 20.50782 0.6090544 -1.654279 -19.64982 5.468094 -3.340095 -30.21962 12.69513 90.33867 15.03474 -9.311744 -0 0 26.73354 -25.98144 18.17607 15.84599 2.751067 -21.60347 -6.358192 -93.73581 10.8197 33.74318 0 0 -4.928242 8.827776 20.21143 1.455185
1.400987 116.0234 305.7094 -5.506427 -9.069837 -18.73747 8.130028 14.56373 -0.3128213 -0 12.13027 -0 -11.28877 -12.33285 -3.76781 4.977439 -15.92931 -3.531065 -0 15.83259 -0 1.193806 -2.433207 16.94802 2.432382 -3.66791 6.037076 0.1859671 16.36273 -5.860542 2.294964 20.50782 0.6090544 -1.654279 -19.64982 5.468094 -3.340095 -30.21962 12.69513 90.33867 15.03474 -9.311744 -0 0 26.73354 -25.98144 18.17607 15.84599 2.751067 -21.60347 -6.358192 -93.73581 10.8197 33.74318 0 0 -4.928242 8.827776 20.21143 1.455185
0.2418697 115.9976 311.0027 -5.631214 -8.993291 -19.53239 8.130028 14.56373 -0.3128213 -0 12.13027 -0 -11.28877 -12.33285 -3.76781 4.977439 -15.92931 -3.531065 -0 15.83259 -0 1.193806 -2.433207 16.94802 2.432382 -3.66791 6.037076 0.1859671 16.36273 -5.860542 2.294964 20.50782 0.6090544 -1.654279 -19.64982 5.468094 -3.340095 -30.21962 12.69513 90.33867 15.03474 -9.311744 -0 0 26.73354 -25.98144 18.17607 15.84599 2.751067 -21.60347 -6.358192 -93.73581 10.8197 33.74318 0 0 -4.928242 8.827776 20.21143 1.455185
-0.9900086 115.9718 316.2796 -5.754887 -8.915043 -20.32697 8.130028 14.56373 -0.3128213 -0 12.13027 -0 -11.28877 -12.33285 -3.76781 4.977439 -15.92931 -3.531065 -0 15.83259 -0 1.193806 -2.433207 16.94802 2.432382 -3.66791 6.037076 0.1859671 16.36273 -5.860542 2.294964 20.50782 0.6090544 -1.654279 -19.64982 5.468094 -3.340095 -30.21962 12.69513 90.33867 15.03474 -9.311744 -0 0 26.73354 -25.98144 18.17607 15.84599 2.751067 -21.60347 -6.358192 -93.73581 10.8197 33.74318 0 0 -4.928242 8.827776 20.21143 1.455185
-2.294414 115.946 321.539 -5.877424 -8.835109 -21.1212 8.130028 14.56373 -0.3128213 -0 12.13027 -0 -11.28877 -12.33285 -3.76781 4.977439 -15.92931 -3.531065 -0 15.83259 -0 1.193806 -2.433207 16.94802 2.432382 -3.66791 6.037076 0.1859671 16.36273 -5.860542 2.294964 20.50782 0.6090544 -1.654279 -19.64982 5.468094 -3.340095 -30.21962 12.69513 90.33867 15.03474 -9.311744 -0 0 26.73354 -25.98144 18.17607 15.84599 2.751067 -21.60347 -6.358192 -93.73581 10.8197 33.74318 0 0 -4.928242 8.827776 20.21143 1.455185
-3.671099 115.9202 326.78 -5.998801 -8.753504 -21.91509 8.130028 14.56373 -0.3128213 -0 12.13027 -0 -11.28877 -12.33285 -3.76781 4.977439 -15.92931 -3.531065 -0 15.83259 -0 1.193806 -2.433207 16.94802 2.432382 -3.66791 6.037076 0.1859671 16.36273 -5.860542 2.294964 20.50782 0.6090544 -1.654279 -19.64982 5.468094 -3.340095 -30.21962 12.69513 90.33867 15.03474 -9.311744 -0 0 26.73354 -25.98144 18.17607 15.84599 2.751067 -21.60347 -6.358192 -93.73581 10.8197 33.74318 0 0 -4.928242 8.827776 20.21143 1.455185
